HIERARCHY
ROOT Hips
{
	OFFSET	0.00	0.00	0.00
	CHANNELS 6 Xposition Yposition Zposition Zrotation Xrotation Yrotation
	JOINT LeftUpLeg
	{
		OFFSET	 0.126116	-0.065224	 0.014019
		CHANNELS 3 Zrotation Xrotation Yrotation
		JOINT LeftLeg
		{
			OFFSET	 0.000000	 0.569914	 0.000000
			CHANNELS 3 Zrotation Xrotation Yrotation
			JOINT LeftFoot
			{
				OFFSET	 0.000000	 0.544423	 0.000000
				CHANNELS 3 Zrotation Xrotation Yrotation
				JOINT LeftToeBase
				{
					OFFSET	 0.000000	 0.207117	 0.000000
					CHANNELS 3 Zrotation Xrotation Yrotation
					End Site
					{
						OFFSET	 0.000000	 0.207117	 0.000000
					}
				}
			}
		}
	}
	JOINT RightUpLeg
	{
		OFFSET	-0.124023	-0.065224	 0.008373
		CHANNELS 3 Zrotation Xrotation Yrotation
		JOINT RightLeg
		{
			OFFSET	 0.000000	 0.570047	 0.000000
			CHANNELS 3 Zrotation Xrotation Yrotation
			JOINT RightFoot
			{
				OFFSET	 0.000000	 0.544354	 0.000000
				CHANNELS 3 Zrotation Xrotation Yrotation
				JOINT RightToeBase
				{
					OFFSET	 0.000000	 0.207540	 0.000000
					CHANNELS 3 Zrotation Xrotation Yrotation
					End Site
					{
						OFFSET	 0.000000	 0.207540	 0.000000
					}
				}
			}
		}
	}
	JOINT Spine
	{
		OFFSET	 0.000184	 0.117403	 0.007763
		CHANNELS 3 Zrotation Xrotation Yrotation
		JOINT Spine1
		{
			OFFSET	 0.000000	 0.137269	 0.000000
			CHANNELS 3 Zrotation Xrotation Yrotation
			JOINT Spine2
			{
				OFFSET	 0.000000	 0.156879	 0.000000
				CHANNELS 3 Zrotation Xrotation Yrotation
				JOINT LeftShoulder
				{
					OFFSET	 0.080501	 0.160143	 0.002496
					CHANNELS 3 Zrotation Xrotation Yrotation
					JOINT LeftArm
					{
						OFFSET	 0.000000	 0.164363	 0.000000
						CHANNELS 3 Zrotation Xrotation Yrotation
						JOINT LeftForeArm
						{
							OFFSET	 0.000000	 0.364576	 0.000000
							CHANNELS 3 Zrotation Xrotation Yrotation
							JOINT LeftHand
							{
								OFFSET	 0.000000	 0.360812	 0.000000
								CHANNELS 3 Zrotation Xrotation Yrotation
								JOINT LeftHandIndex1
								{
									OFFSET	 0.000000	 0.086006	 0.000000
									CHANNELS 3 Zrotation Xrotation Yrotation
									JOINT LeftHandIndex2
									{
										OFFSET	 0.000000	 0.047237	 0.000000
										CHANNELS 3 Zrotation Xrotation Yrotation
										JOINT LeftHandIndex3
										{
											OFFSET	-0.004284	 0.038165	 0.000551
											CHANNELS 3 Zrotation Xrotation Yrotation
											End Site
											{
												OFFSET	-0.004284	 0.038165	 0.000551
											}
										}
									}
								}
							}
						}
					}
				}
				JOINT Neck
				{
					OFFSET	 0.000000	 0.176489	 0.000000
					CHANNELS 3 Zrotation Xrotation Yrotation
					JOINT Head
					{
						OFFSET	 0.000000	 0.077941	 0.001747
						CHANNELS 3 Zrotation Xrotation Yrotation
						End Site
						{
							OFFSET	 0.000000	 0.077941	 0.001747
						}
					}
				}
				JOINT RightShoulder
				{
					OFFSET	-0.080363	 0.159706	-0.000306
					CHANNELS 3 Zrotation Xrotation Yrotation
					JOINT RightArm
					{
						OFFSET	 0.000000	 0.164196	 0.000000
						CHANNELS 3 Zrotation Xrotation Yrotation
						JOINT RightForeArm
						{
							OFFSET	 0.000000	 0.365611	 0.000000
							CHANNELS 3 Zrotation Xrotation Yrotation
							JOINT RightHand
							{
								OFFSET	 0.000000	 0.360648	 0.000000
								CHANNELS 3 Zrotation Xrotation Yrotation
								JOINT RightHandIndex1
								{
									OFFSET	 0.000000	 0.069977	 0.000000
									CHANNELS 3 Zrotation Xrotation Yrotation
									JOINT RightHandIndex2
									{
										OFFSET	 0.000000	 0.052305	 0.000000
										CHANNELS 3 Zrotation Xrotation Yrotation
										JOINT RightHandIndex3
										{
											OFFSET	 0.009002	 0.042196	 0.000782
											CHANNELS 3 Zrotation Xrotation Yrotation
											End Site
											{
												OFFSET	 0.009002	 0.042196	 0.000782
											}
										}
									}
								}
							}
						}
					}
				}
			}
		}
	}
}
MOTION
Frames:    7
Frame Time: 0.03333334
-0.047744	 1.235018	-1.244857	-2.382017	 1.275999	-174.227200	 176.259200	 8.616578	-17.396980	 4.530015	-30.694720	 6.243483	 9.945896	 81.311010	-2.540963	 1.514971	 31.273720	-2.812925	 167.712600	 27.425380	 22.019400	-5.676181	-52.700180	 6.434155	 3.810263	 69.986550	-3.315695	-1.669702	 33.151310	 2.886771	-1.435635	 8.873298	-12.834010	 4.739125	 2.689284	-5.766542	-4.876444	-2.617739	 13.956210	-121.358000	 7.456971	 94.052110	 18.774100	 42.332150	-3.342943	 14.908680	-0.757496	-0.195347	-5.732573	-18.812950	-28.035920	 4.628495	 18.870700	-1.657270	-5.863914	 21.483280	 2.375042	 5.332062	 4.352529	-0.168811	-0.168983	-5.012430	-0.141885	-2.150837	-2.583833	 0.552744	 118.419200	-0.033003	-90.817110	-3.365644	 50.392840	-2.837122	-5.064488	-0.195011	 0.261012	-5.474959	 8.689238	-46.193980	-2.422452	 25.876000	 1.327939	 15.825420	 44.867710	-11.798390	-8.529468	 23.873550	-1.219877
-0.046986	 1.235194	-1.245449	-2.405771	 1.060897	-174.025900	 176.909600	 8.525952	-19.542300	 4.609859	-31.230800	 6.452011	 12.323800	 82.076820	-4.980945	 1.528512	 31.441860	-2.819316	 166.120900	 28.897910	 25.514200	-5.604482	-52.024120	 6.640125	 2.946224	 71.344670	-2.934116	-1.675605	 33.221830	 2.889727	-1.162181	 8.413001	-14.480740	 4.699940	 3.726193	-5.839852	-4.783700	-4.146883	 13.717690	-121.353700	 7.625267	 94.135680	 17.437880	 41.629570	-2.061408	 17.064240	-0.838267	-1.227990	-4.664585	-20.587770	-29.179530	 4.650242	 18.942010	-1.668876	-5.863726	 21.545930	 2.381958	 5.334753	 4.415540	-0.167667	-0.172061	-5.026740	-0.127729	-2.104328	-2.824091	 0.480499	 118.395900	-0.132263	-90.770530	-1.238180	 50.022510	-4.268739	-5.590103	-0.195500	 1.322479	-6.715922	 9.010431	-44.210650	-2.343880	 25.289650	 1.286107	 15.678950	 44.295490	-11.571770	-8.531510	 23.284970	-1.180729
-0.019868	 1.179749	-1.655758	-1.484398	-0.598336	-170.046300	-175.479600	-15.837050	-22.603440	 3.789601	-26.502650	 3.906990	-26.834730	 76.062770	 21.356010	 4.613682	 57.229500	-4.448555	 172.611900	 33.458560	 31.437090	-0.378029	-5.014526	 10.597030	-13.219040	 57.608050	-3.349335	-1.840431	 35.147160	 2.974842	 2.748532	 3.192757	-45.803200	 3.002146	 10.796900	-4.510917	-2.215825	-14.713280	 2.993484	-121.049600	 9.389929	 94.984650	 30.857770	 29.896630	-9.601975	 26.282880	-0.702849	-24.571090	 22.426090	-25.557690	-42.473510	 5.337625	 20.435780	-2.000970	-5.862174	 23.691580	 2.620637	 5.445538	 7.029658	-0.122791	-0.147953	-5.184227	 0.081021	-1.520893	-3.564681	-1.012952	 118.962500	-2.001405	-89.918620	 22.551220	 39.624770	-16.285580	-17.139850	-0.199526	 24.736620	-11.424510	 12.338480	 3.184231	-1.462290	 10.728160	 0.878340	 13.234650	 30.376740	-7.071944	-8.458331	 9.230461	-0.281444
-0.010036	 1.185270	-1.778028	-0.382286	 0.658458	-168.931600	-170.877000	-13.392080	-22.420160	 5.769170	-37.176000	 4.486896	-28.057510	 62.497100	 21.524110	 7.336748	 68.348250	-6.065201	 175.714600	 26.824180	 30.020040	-0.385298	-5.110462	 10.756720	-17.974090	 49.949900	-2.991793	-1.780202	 34.453430	 2.943173	 3.847937	 2.294254	-48.517380	 2.276863	 10.458370	-3.334525	-1.390302	-14.652080	 0.046396	-120.953400	 8.901234	 94.731850	 24.593480	 34.032020	-5.369063	 30.208940	-0.765198	-29.325790	 25.662590	-18.711490	-44.601000	 5.230463	 20.994830	-2.001159	-5.864211	 24.523700	 2.714253	 5.493660	 8.175885	-0.104644	-0.099908	-5.135516	 0.051321	-1.786175	-2.737908	-1.488421	 119.461200	-2.327552	-89.773060	 20.887740	 39.765310	-14.322660	-19.522950	-0.199659	 29.551320	-11.560650	 12.782360	 16.786470	-1.659503	 9.538545	 0.954848	 13.120010	 29.359470	-6.797293	-8.443952	 8.172389	-0.214699
-0.003961	 1.198856	-1.892726	 0.027760	 1.825285	-170.909900	-167.371300	-5.193560	-26.586940	 9.906889	-52.389200	 9.822135	-28.533720	 65.303310	 22.924980	 4.261600	 55.383810	-3.833684	 174.649200	 28.200860	 30.874750	-1.777206	-22.413470	 7.009062	-22.742210	 59.858840	 7.548888	-1.659209	 33.025660	 2.881534	 4.555264	 2.591175	-46.092300	 1.289437	 10.476550	-1.665671	-0.570620	-14.605060	-2.825571	-120.652700	 8.352312	 94.433860	 19.356190	 38.014380	-3.223174	 30.799600	-0.669514	-34.448890	 26.184260	-10.181330	-42.791740	 5.117115	 22.187120	-2.041178	-5.869043	 25.589530	 2.835133	 5.552853	 9.592917	-0.083487	-0.029094	-5.036935	-0.050110	-1.811610	-2.711032	-2.635467	 119.672900	-1.683921	-90.080860	 15.241940	 41.824520	-10.926620	-22.121680	-0.202250	 34.645360	-14.843840	 9.496098	 34.433110	-1.944631	 12.570800	 1.091701	 13.465350	 32.258090	-7.594524	-8.473320	 10.441400	-0.357751
 0.003443	 1.218998	-2.059731	 0.510205	 3.033037	-173.012600	-162.141100	 6.058076	-33.070430	 19.108640	-67.957240	 18.849940	-25.426050	 65.080360	 23.160030	 2.475218	 41.447510	-3.021791	 176.084100	 22.108530	 30.773070	-2.461511	-29.733790	 3.406708	-28.790080	 67.495500	 18.759270	-1.533543	 31.494280	 2.820423	 5.229767	 3.239573	-40.341740	 0.081905	 10.150930	 0.361376	 0.334971	-14.048640	-5.485227	-120.333800	 7.761964	 94.117970	 14.683880	 42.228180	-0.985734	 24.553670	-0.270790	-39.415300	 30.208710	-2.857347	-37.020770	 4.995454	 23.465880	-2.081632	-5.877073	 26.732560	 2.966117	 5.616041	 11.112690	-0.062347	 0.047028	-4.931357	-0.159004	-1.838906	-2.662433	-3.774283	 119.903800	-0.994949	-90.413550	 4.884433	 44.380770	-4.347178	-24.518670	-0.202895	 39.415650	-14.384320	 3.382287	 50.676120	-2.263174	 15.823060	 1.258004	 13.904000	 35.362640	-8.504179	-8.498631	 12.875270	-0.511175
 0.007090	 1.238906	-2.277288	 0.002010	 2.833910	-176.080900	-158.954200	 23.186540	-46.217570	 21.491300	-70.110240	 18.277650	-11.602840	 70.545010	 17.084050	 1.479428	 30.829580	-2.796324	 177.243500	 11.615520	 29.288620	-2.543141	-30.544830	-0.482581	-43.835910	 73.775990	 37.924620	-1.631914	 32.697280	 2.868004	 4.076229	 4.671233	-27.312740	-1.143162	 9.892793	 2.865165	 1.192517	-13.272880	-8.257294	-120.132000	 6.466484	 93.474330	-0.570843	 47.165620	 8.934308	 27.212580	-0.268263	-44.839080	 25.704980	 2.545168	-23.744200	 4.944675	 25.791320	-2.118850	-5.900737	 28.899940	 3.218863	 5.713263	 13.460530	-0.032842	 0.121604	-4.842628	-0.371973	-2.203511	-2.967202	-5.152965	 119.823000	 0.179827	-90.970410	-10.544570	 46.341570	 2.676957	-27.161060	-0.200254	 44.842700	-17.061650	-9.885762	 65.051810	-2.655087	 18.754630	 1.450060	 14.393010	 38.291660	-9.426490	-8.517832	 15.367020	-0.668794
